<?xml version="1.0" encoding="UTF-8" standalone="no"?><!DOCTYPE svg PUBLIC "-//W3C//DTD SVG 1.1//EN" "http://www.w3.org/Graphics/SVG/1.1/DTD/svg11.dtd"><svg width="100%" height="100%" viewBox="0 0 450 450" version="1.1" xmlns="http://www.w3.org/2000/svg" xmlns:xlink="http://www.w3.org/1999/xlink" xml:space="preserve" xmlns:serif="http://www.serif.com/" style="fill-rule:evenodd;clip-rule:evenodd;stroke-linecap:round;stroke-linejoin:round;stroke-miterlimit:1.5;"><rect id="Artboard1" x="0" y="0" width="450" height="450" style="fill:none;"/><g><g><g><path d="M330.15,132.477c-0,-56.823 -46.847,-102.887 -102.225,-102.887c-55.377,0 -100.36,46.133 -100.36,102.956" style="fill:none;stroke:#000;stroke-width:6.12px;"/></g><g><path d="M301.09,152.67c1.021,-7.027 1.54,-13.154 1.54,-20.399c0,-56.671 -31.568,-102.681 -70.431,-102.681c-38.864,0 -70.432,46.01 -70.432,102.681c-0,7.57 0.577,15.083 1.694,22.408" style="fill:none;stroke:#000;stroke-width:6.12px;"/></g><g><path d="M258.766,160.562c0,0 1.091,-18.68 1.091,-28.291c0,-56.671 -12.601,-102.681 -28.115,-102.681c-15.514,0 -28.115,46.01 -28.115,102.681c-0,10.304 0.307,19.235 1.137,28.999" style="fill:none;stroke:#000;stroke-width:6.12px;"/></g><g><path d="M126.737,116.681c-0.522,2.129 1.641,4.544 4.663,3.894c3.543,-0.767 8.802,-4.909 14.36,-6.501c8.206,-2.343 17.717,-1.874 18.874,-8.669c5.259,-30.67 21.895,-56.583 50.504,-75.815l-24.17,6.329c-36.815,20.571 -55.167,42.002 -64.231,80.762Z"/></g><g><path d="M228.657,97.501c-39.563,-0 -73.874,6.618 -90.924,15.95c-9.633,5.272 -14.243,11.937 -14.243,18.281c-0,6.343 4.61,13.009 14.243,18.28c17.05,9.332 51.361,15.951 90.924,15.951c39.563,-0 73.874,-6.619 90.924,-15.951c9.633,-5.271 14.243,-11.937 14.243,-18.28c0,-6.344 -4.61,-13.009 -14.243,-18.281c-17.05,-9.332 -51.361,-15.95 -90.924,-15.95Zm0,6.115c54.669,0 99.051,12.598 99.051,28.116c0,15.517 -44.382,28.115 -99.051,28.115c-54.669,-0 -99.051,-12.598 -99.051,-28.115c-0,-15.518 44.382,-28.116 99.051,-28.116Z"/></g><g><path d="M127.555,132.556c0,-3.453 -0.465,-3.42 0.246,-6.741c7.289,-34.076 51.177,-64.052 101.142,-64.052c54.835,-0 101.193,31.92 101.193,70.793" style="fill:none;stroke:#000;stroke-width:6.11px;"/></g></g><g><g><path d="M219.019,275.392c-1.442,-3.109 -2.256,-6.621 -2.256,-10.332c0,-12.755 9.587,-23.109 21.394,-23.109c11.806,0 21.393,10.354 21.393,23.109c0,3.422 -0.691,6.673 -1.929,9.598l-19.44,51.362l-19.162,-50.628Zm19.69,-22.603c5.634,-0 10.21,5.063 10.21,11.297c0,6.235 -4.576,11.298 -10.21,11.298c-5.635,0 -10.211,-5.063 -10.211,-11.298c-0,-6.234 4.576,-11.297 10.211,-11.297Z"/><path d="M217.099,276.192c-1.545,-3.357 -2.414,-7.134 -2.414,-11.132c-0,-13.944 10.563,-25.187 23.472,-25.187c12.908,0 23.471,11.243 23.471,25.187c0,3.695 -0.741,7.204 -2.076,10.364l-19.428,51.332c-0.304,0.808 -1.08,1.342 -1.943,1.342c-0.864,-0 -1.639,-0.534 -1.944,-1.342l-19.138,-50.564Zm1.92,-0.8c-1.442,-3.109 -2.256,-6.621 -2.256,-10.332c0,-12.755 9.587,-23.109 21.394,-23.109c11.806,0 21.393,10.354 21.393,23.109c0,3.422 -0.691,6.673 -1.929,9.598l-19.44,51.362l-19.162,-50.628Zm19.69,-22.603c5.634,-0 10.21,5.063 10.21,11.297c0,6.235 -4.576,11.298 -10.21,11.298c-5.635,0 -10.211,-5.063 -10.211,-11.298c-0,-6.234 4.576,-11.297 10.211,-11.297Zm-0,2.078c4.549,-0 8.132,4.187 8.132,9.219c0,5.032 -3.583,9.22 -8.132,9.22c-4.55,0 -8.133,-4.188 -8.133,-9.22c-0,-5.032 3.583,-9.219 8.133,-9.219Z"/></g><g><path d="M247.004,261.352l31.087,0l24.016,-60.839l-26.684,-11.59l-0,-6.083l63.454,-0l-0,6.083l-29.061,11.59l-85.692,219.897l-4.744,-0l-80.948,-227.142l-27.277,-4.345l0,-6.083l87.172,-0l0,6.083l-24.313,3.768l25.204,68.661l31.044,0c-0.285,0.902 -0.435,1.865 -0.435,2.862c-0,1.135 0.196,2.22 0.556,3.225l-29.09,0l35.582,101.979l38.842,-101.979l-28.838,0c0.361,-1.005 0.56,-2.09 0.56,-3.225c0,-0.997 -0.154,-1.96 -0.435,-2.862Z" style="fill:#0f0000;fill-rule:nonzero;"/></g></g><g><g transform="matrix(1,0,0,0.83707,2.84217e-14,14.5228)"><text x="148.88px" y="89.135px" style="font-family:'CourierNewPSMT', 'Courier New', monospace;font-size:29.444px;fill:#fff;">1</text></g><path d="M154.046,79.188l-0.107,0.027c-0.008,0.003 -0.016,0.006 -0.033,0.009c-0.525,0.133 -0.919,0.164 -1.158,0.164c-0.854,-0 -1.65,-0.268 -2.357,-0.863c-0.903,-0.753 -1.273,-1.677 -1.273,-2.7c0,-0.85 0.271,-1.67 0.945,-2.406c0.09,-0.098 0.189,-0.19 0.287,-0.276c0.263,-0.216 0.748,-0.544 1.561,-0.787c0.033,-0.011 0.065,-0.02 0.098,-0.029l5.52,-1.457c0.919,-0.241 1.897,-0.044 2.652,0.535c0.748,0.579 1.191,1.474 1.191,2.422l0,11.24l1.076,-0c1.158,-0 1.939,0.367 2.44,0.738c0.961,0.709 1.429,1.654 1.429,2.825c-0,1.102 -0.427,2.046 -1.38,2.78c-0.509,0.396 -1.306,0.783 -2.489,0.783l-9.486,-0c-1.183,-0 -1.971,-0.387 -2.489,-0.783c-0.952,-0.734 -1.371,-1.678 -1.371,-2.78c-0,-1.171 0.468,-2.116 1.421,-2.825c0.501,-0.371 1.281,-0.738 2.439,-0.738l1.084,-0l0,-5.879Zm4.263,-5.361l-0,14.297l4.139,0c0.288,0 0.501,0.046 0.624,0.139c0.124,0.092 0.181,0.214 0.181,0.367c0,0.144 -0.057,0.265 -0.181,0.361c-0.123,0.096 -0.336,0.144 -0.624,0.144l-9.486,0c-0.288,0 -0.493,-0.048 -0.616,-0.144c-0.123,-0.096 -0.189,-0.217 -0.189,-0.361c0,-0.153 0.066,-0.275 0.189,-0.367c0.123,-0.093 0.328,-0.139 0.616,-0.139l4.139,0l0,-12.901l-3.934,1.035c-0.197,0.048 -0.336,0.072 -0.419,0.072c-0.147,0 -0.279,-0.05 -0.394,-0.15c-0.123,-0.1 -0.181,-0.219 -0.181,-0.355c0,-0.121 0.05,-0.233 0.14,-0.337c0.082,-0.064 0.238,-0.133 0.476,-0.205l5.52,-1.456Z" style="fill:#fff;"/></g><g><path d="M111.123,167.135c0.328,-1.314 0.819,-2.623 1.474,-3.874c2.457,-4.679 6.716,-7.49 10.418,-7.559c0.065,-4.074 2.62,-8.775 6.846,-11.476c4.259,-2.701 9.205,-2.785 12.448,-0.808c1.9,-3.494 6.257,-6.159 11.138,-6.159c4.914,-0 9.238,2.665 11.171,6.159c3.21,-1.977 8.189,-1.893 12.415,0.808c4.259,2.701 6.814,7.402 6.879,11.476c3.702,0.069 7.96,2.88 10.417,7.559c0.656,1.251 1.147,2.56 1.442,3.874l-84.648,-0Z" style="fill:#fff;stroke:#000;stroke-width:6.12px;"/></g><g><path d="M181.623,148.742c0.368,-6.124 4.255,-13.002 10.564,-17.019c6.557,-4.175 14.231,-4.306 19.226,-1.249c2.937,-5.401 9.642,-9.521 17.213,-9.521c7.571,0 14.279,4.12 17.217,9.521c4.991,-3.057 12.669,-2.926 19.225,1.249c6.557,4.176 10.495,11.441 10.592,17.739c4.186,0.078 8.84,2.434 12.521,6.535c0.781,-1.932 2.225,-3.778 4.183,-5.023c2.992,-1.905 6.498,-1.965 8.778,-0.57c1.342,-2.464 4.407,-4.344 7.864,-4.344c3.457,-0 6.519,1.88 7.86,4.344c2.281,-1.395 5.786,-1.335 8.779,0.57c2.996,1.906 4.795,5.222 4.84,8.096c2.607,0.048 5.614,2.031 7.344,5.331c0.461,0.883 0.805,1.806 1.035,2.733l-227.721,0c0.324,-1.314 0.812,-2.622 1.466,-3.874c2.452,-4.679 6.714,-7.49 10.412,-7.558c0.062,-4.075 2.615,-8.775 6.859,-11.477c4.245,-2.7 9.212,-2.785 12.446,-0.808c1.902,-3.493 6.243,-6.159 11.145,-6.159c4.902,0 9.243,2.666 11.145,6.159c3.23,-1.977 8.201,-1.892 12.446,0.808c1.871,1.192 3.416,2.773 4.561,4.517Z" style="fill:#fff;stroke:#000;stroke-width:6.12px;"/></g></g></svg>