<?xml version="1.0" encoding="UTF-8" standalone="no"?><!DOCTYPE svg PUBLIC "-//W3C//DTD SVG 1.1//EN" "http://www.w3.org/Graphics/SVG/1.1/DTD/svg11.dtd"><svg width="100%" height="100%" viewBox="0 0 450 450" version="1.1" xmlns="http://www.w3.org/2000/svg" xmlns:xlink="http://www.w3.org/1999/xlink" xml:space="preserve" xmlns:serif="http://www.serif.com/" style="fill-rule:evenodd;clip-rule:evenodd;stroke-linecap:round;stroke-miterlimit:1.5;"><rect id="Artboard1" x="0" y="0" width="450" height="450" style="fill:none;"/><g><path d="M183.192,107.266c18.265,-8.731 38.727,-13.623 60.326,-13.623c77.196,-0 139.869,62.493 139.869,139.467c-0,76.975 -62.673,139.468 -139.869,139.468c-77.195,0 -139.868,-62.493 -139.868,-139.468c-0,-50.094 24.69,-91.7 56.585,-107.905c2.844,2.48 5.843,1.153 8.596,4.04c2.48,2.6 20.782,30.579 20.782,30.579l8.033,-1.562l4.847,25.104l10.09,-1.936l3.835,31.131l53.333,14.091l-43.429,-21.144l-5.871,-35.901l-13.42,-0.548l-0.439,-22.028l-16.226,-2.733l-7.174,-37.032Z"/><path d="M106.716,323.248l-58.975,-82.264c68.321,-68.041 143.852,-131.726 234.398,-186.342l36.863,48.994l-212.286,219.612Z"/><circle id="v" cx="243.518" cy="236.618" r="158.741"/><g><path d="M179.691,337.129c0,0.049 -0.054,0.079 -0.085,0.128c0.201,0.055 0.391,0.116 0.61,0.159l-0.525,-0.287Z" style="fill:#fff;fill-rule:nonzero;"/><path d="M176.317,147.016c0.664,1.291 1.299,2.578 1.928,3.854c-0.686,0.376 -1.403,0.681 -2.167,0.852c-1.703,0.379 -3.705,-0.019 -4.7,-1.458l-0.263,-0.539c2.21,-0.33 2.356,-1.892 4.035,-2.449c0.575,-0.184 0.918,-0.252 1.167,-0.26Z" style="fill:#fff;fill-rule:nonzero;"/><path d="M158.598,127.84c0.087,0.08 0.172,0.161 0.257,0.241c1.174,1.107 2.432,1.501 3.642,1.964c-5.031,4.259 -10.504,7.964 -16.323,11.053c-0.75,0.28 -1.381,0.81 -1.789,1.5c-0.61,1.225 0.415,2.755 1.703,3.202c1.288,0.447 2.723,0.184 4.035,-0.116c-1.11,1.633 -1.429,3.684 -0.867,5.578c1.221,0.117 1.612,-1.561 1.978,-2.731c1.489,-4.647 8.875,-6.539 8.399,-11.432c2.002,1.041 4.035,-1.298 5.256,-3.214c0.313,-0.492 0.725,-0.986 1.191,-1.419c4.235,4.105 7.076,8.593 9.472,13.088c-1.672,1.069 -3.412,1.987 -5.23,2.561l0.775,1.617c-0.083,0.038 -0.172,0.06 -0.263,0.067c-2.148,0.208 -4.425,-1.347 -6.714,-1.047c-1.404,0.184 -3.138,0.184 -3.943,1.616c-0.116,0.184 -0.611,2.701 -0.269,2.493l3.742,-2.156c0.382,1.046 0.473,2.176 0.262,3.27c1.554,-0.16 3.119,0.186 4.462,0.986c-1.515,3.333 -4.936,5.401 -8.582,5.186c-0.03,-1.077 -0.092,-2.161 -0.122,-3.239c-2.93,-0.239 -5.317,2.284 -6.782,4.807c-1.465,2.523 -2.625,5.462 -5.078,7.078c-1.49,1.023 -3.321,1.409 -4.933,2.248c-1.611,0.838 -3.052,2.522 -2.716,4.286c0.153,0.839 0.69,1.616 0.665,2.492c-0.091,1.617 -1.971,2.37 -3.229,3.417c-2.148,1.8 -2.685,5.101 -4.987,6.686c-1.672,1.17 -0.268,3.211 -2.215,3.811c-1.947,0.6 1.349,6.69 1.21,6.787c-2.128,1.478 -3.007,-2.348 -6.132,-4.496c-1.044,-0.718 -2.339,-1.249 -4.015,-1.331c-3.847,-0.191 -5.688,14.149 -6.629,21.719c1.709,1.194 3.437,-1.537 3.766,-3.601c0.33,-2.063 2.149,-4.77 3.821,-3.545c-0.384,2.97 -0.775,5.909 -1.153,8.879c-0.145,0.557 -0.102,1.147 0.122,1.677c0.329,0.613 1.044,0.901 1.587,1.348c1.52,1.316 1.318,3.674 1.404,5.664c0.123,2.467 0.876,4.863 2.185,6.956c-0.122,-0.423 -0.207,-0.839 -0.299,-1.262c2.359,0.291 4.732,-0.442 6.519,-2.014c0.928,-0.839 1.709,-1.917 2.875,-2.339c1.166,-0.423 2.515,-0.129 3.736,0.202c3.797,1.047 7.838,2.216 10.377,5.217c1.282,1.524 2.094,3.447 3.62,4.702c3.467,2.94 9.333,1.641 12.501,4.899c2.539,2.639 2.069,6.901 1.38,10.526c-1.734,-0.955 -4.06,1.445 -3.052,3.153c0.927,-1.022 2.002,-2.1 3.351,-2.1c1.229,0 2.352,1.526 1.77,2.473c-0.077,0.082 -0.15,0.168 -0.22,0.258c0.09,-0.079 0.163,-0.166 0.22,-0.258c2.512,-2.727 8.059,-1.43 8.936,2.267c3.351,0.238 6.715,0.471 10.078,0.747c-0.622,4.935 9.669,5.223 9.462,10.177c-0.031,1.169 -0.715,2.192 -1.313,3.178c-2.671,4.392 -4.257,9.362 -4.627,14.493c-0.354,4.899 -0.14,10.912 -4.382,13.318c-2.442,1.354 -5.83,1.109 -7.447,3.393c-0.459,0.73 -0.792,1.534 -0.983,2.376c-1.042,3.808 -2.088,7.617 -3.138,11.426c-1.349,-0.117 -2.716,-0.264 -4.059,-0.417c1.587,0.508 2.686,2.664 1.74,4.14c-1.526,-0.803 -3.529,0.153 -4.371,1.69c-0.842,1.537 -0.684,3.38 -0.238,5.07c1.48,5.043 5.533,8.93 10.621,10.189c-0.867,1.653 -3.522,0.931 -5.146,-0.178c-11.651,-7.963 -20.232,-19.702 -24.3,-33.243c-1.404,-4.739 -2.307,-9.797 -5.06,-13.851c-2.302,-3.441 -5.775,-5.964 -8.076,-9.411c-3.223,-4.942 -3.827,-11.359 -7.569,-15.884c-2.094,-2.578 -5.323,-5.75 -3.474,-8.512c0.745,-1.138 2.332,-2.216 1.704,-3.416c-0.208,-0.392 -0.611,-0.613 -0.959,-0.968c-1.257,-1.353 -0.39,-3.472 0.238,-5.217c1.044,-3.031 1.044,-6.264 0.611,-9.503c-3.154,-2.814 -5.612,-6.326 -7.179,-10.257c-0.928,-2.4 -2.161,-5.394 -4.724,-5.425c-0.666,-1.837 -1.349,-3.717 -2.015,-5.578c-0.277,0.66 -2.374,-4.887 -3.085,-4.829c1.916,-29.401 15.079,-51.327 34.662,-73.286c0.431,-0.198 0.851,-0.421 1.257,-0.667c4.379,-2.56 7.898,-6.374 12.095,-9.229Z" style="fill:#fff;fill-rule:nonzero;"/><path d="M194.573,111.406c3.004,-1.445 5.543,-3.717 8.503,-5.248c5.097,-2.62 19.448,-6.815 25.174,-6.999c13.026,-0.404 17.659,3.148 30.685,2.744l-9.064,4.984c-2.442,1.365 -5.274,2.755 -7.978,1.984c0.046,2.253 1.857,4.105 4.102,4.194c-5.348,3.319 -12.776,-0.073 -18.429,2.713c-2.368,1.17 -4.273,3.374 -6.885,3.79c-1.502,0.245 -3.052,-0.165 -4.566,0.166c-2.503,0.551 -4.084,2.933 -5.939,4.708c-2.131,2.052 -5.268,3.454 -8.058,2.45c-2.79,-1.004 -4.242,-5.138 -2.008,-7.079c1.099,-0.955 2.673,-1.114 3.967,-1.788c1.295,-0.673 2.326,-2.449 1.349,-3.533c-0.421,-0.471 -1.117,-0.655 -1.501,-1.163c-0.385,-0.509 -0.385,-1.329 -0.733,-1.923c-1.324,-2.333 -5.005,0.802 -7.508,-0.135" style="fill:#fff;fill-rule:nonzero;"/><path d="M278.166,363.788c-2.985,1.482 -25.603,4.336 -31.326,4.59c-13.021,0.566 -18.062,0.457 -30.717,-2.363l9.002,-5.096c0.587,-0.338 5.025,-1.331 6.36,-2.145c2.122,-1.294 1.576,-2.677 4.417,-4.358c2.759,-1.633 5.518,-3.212 7.616,-4.279c2.354,-1.199 8.031,3.028 10.638,2.579c1.498,-0.263 3.054,0.128 4.563,-0.221c2.496,-0.582 18.213,-2.246 16.003,-0.278c-1.087,0.969 -2.659,1.148 -3.945,1.837c-1.286,0.69 -2.295,2.478 -1.305,3.55c0.427,0.466 1.125,0.641 1.516,1.144c0.39,0.504 0.401,1.324 0.756,1.914" style="fill:#fff;fill-rule:nonzero;"/><path d="M234.14,122.428c1.764,-0.41 3.297,-1.451 4.939,-2.217c1.642,-0.765 3.607,-1.224 5.225,-0.404c0.476,1.225 -0.904,2.296 -2.118,2.725c-2.349,0.829 -4.869,1.05 -7.325,0.643" style="fill:#fff;fill-rule:nonzero;"/><path d="M353.635,271.426l-2.161,1.537c0.715,2.771 -0.695,5.683 -3.309,6.833c-1.349,0.551 -3.143,0.79 -3.601,2.174c-0.378,1.182 0.531,2.376 0.653,3.6c0.202,2.046 -1.703,3.57 -3.052,5.089c-1.349,1.519 -2.1,4.372 -0.275,5.29c0.439,0.187 0.91,0.287 1.386,0.294c1.984,0.178 4.163,0.233 5.781,-0.924c4.651,-3.331 0.232,-12.357 4.822,-15.78c0.653,-0.478 1.471,-0.827 1.831,-1.561c1.056,-2.18 -2.936,-4.305 -2.075,-6.552Z" style="fill:#fff;fill-rule:nonzero;"/><path d="M337.136,134.417c-0.159,-0.167 -0.381,-0.258 -0.611,-0.251c-0.378,0.012 -0.755,-0.027 -1.123,-0.117c-2.246,-0.483 -3.949,-2.216 -5.866,-3.478c-3.958,-2.552 -6.705,-5.131 -11.177,-3.663c-0.073,0.022 -0.149,0.034 -0.225,0.034c-0.429,-0 -0.782,-0.354 -0.782,-0.784c0,-0.104 0.021,-0.207 0.061,-0.303c0.479,-1.224 0.687,-2.539 0.61,-3.852l-0.689,0.239c-7.832,-4.555 -8.467,-12.35 -17.013,-9.289c-1.977,0.723 -12.312,4.899 -14.314,5.554c-2.124,0.747 -4.48,1.053 -6.305,2.376c-1.825,1.323 -2.833,4.231 -1.221,5.817c1.349,1.353 3.498,0.986 5.384,1.17c1.758,0.171 3.76,1.837 3.095,3.38c-0.082,0.162 -0.218,0.29 -0.385,0.361c-7.606,3.496 -13.869,3.062 -21.364,6.209c-0.298,0.118 -0.495,0.408 -0.495,0.729c0,0.215 0.088,0.421 0.244,0.569c2.637,2.339 3.339,9.112 2.796,12.773c-0.041,0.358 -0.326,0.642 -0.684,0.68c-2.551,0.184 -5.03,-1.28 -7.612,-1.451c-4.034,-0.208 -7.892,3.361 -7.972,7.409c-0.079,4.047 3.59,7.795 7.625,7.74c2.759,-0 5.493,-1.562 8.149,-1.225c0.395,0.049 0.765,-0.22 0.842,-0.612c0.391,-2.45 2.106,-4.519 3.858,-6.307c3.76,-3.784 9.156,-7.201 14.167,-5.346c1.62,0.689 3.115,1.641 4.426,2.817c2.848,2.249 5.685,4.517 8.509,6.803c0.315,0.252 0.775,0.223 1.056,-0.068c0.61,-0.612 1.221,-1.224 1.831,-1.837c0.147,-0.154 0.35,-0.241 0.562,-0.241c0.212,-0 0.415,0.087 0.561,0.241l3.956,4.17c0.261,0.275 0.684,0.324 1.001,0.117c0.391,-0.264 0.787,-0.521 1.184,-0.778c0.128,-0.085 0.279,-0.131 0.432,-0.131c0.321,0 0.611,0.199 0.728,0.498l0.36,0.919c0.119,0.301 0.41,0.499 0.732,0.499c0.397,-0 0.734,-0.3 0.782,-0.695c0.055,-0.447 0.116,-0.894 0.171,-1.347c0.044,-0.397 0.389,-0.698 0.787,-0.686c1.764,0.037 3.577,0 5.152,-0.802c1.831,-0.87 3.113,-3.025 2.362,-4.899c-0.39,-0.986 -1.318,-1.769 -1.501,-2.823c-0.385,-2.1 2.6,-3.533 4.541,-2.577c1.2,0.668 2.153,1.708 2.717,2.963c0.133,0.266 0.406,0.434 0.702,0.434c0.368,-0 0.688,-0.258 0.769,-0.617l0.274,-1.286c0.074,-0.364 0.396,-0.627 0.766,-0.627c0.312,-0 0.595,0.186 0.718,0.474c1.523,3.461 3.449,6.729 5.738,9.736c0.093,0.131 0.144,0.289 0.144,0.451c-0,0.427 -0.35,0.778 -0.776,0.778c-0.027,-0 -0.055,-0.002 -0.083,-0.005c-5.189,-0.649 -10.458,-0.04 -15.364,1.776c-0.305,0.12 -0.507,0.418 -0.507,0.746c0,0.2 0.075,0.392 0.208,0.54c1.9,2.057 4.599,3.188 7.392,3.098c1.41,-0.036 2.961,-0.355 4.041,0.539c0.806,0.686 1.014,1.8 1.166,2.823c0.379,2.286 0.753,4.556 1.123,6.809c0.007,0.041 0.01,0.082 0.01,0.124c0,0.43 -0.353,0.784 -0.781,0.784c-0.125,-0 -0.247,-0.03 -0.358,-0.087c-3.095,-1.648 -7.062,-1.433 -10.7,-1.507c-3.803,-0.104 -8.18,-1.065 -10.152,-4.127c-0.144,-0.237 -0.401,-0.382 -0.677,-0.382c-0.277,0 -0.534,0.145 -0.678,0.382c-0.917,1.48 -1.358,3.208 -1.263,4.948c0.001,0.015 0.001,0.03 0.001,0.045c-0,0.43 -0.353,0.784 -0.781,0.784c-0.069,-0 -0.137,-0.009 -0.203,-0.027c-3.846,-1.01 -7.935,-2.615 -9.315,-6.123c-0.147,-0.34 -0.522,-0.523 -0.879,-0.429c-3.278,0.784 -7.062,-1.341 -7.935,-4.629c-0.336,-1.225 -0.428,-2.731 -1.502,-3.386c-0.711,-0.324 -1.508,-0.407 -2.271,-0.239c-6.488,0.753 -12.947,1.476 -19.405,2.229c-3.522,0.422 -7.172,0.851 -10.279,2.584c-2.973,1.635 -5.366,4.776 -5.262,8.144c0.015,0.285 -0.125,0.557 -0.366,0.71c-5.775,3.533 -7.325,2.67 -10.67,8.573c-1.074,1.837 -5.335,9.889 -4.914,11.989c0.299,1.617 1.374,2.994 1.703,4.586c0.308,1.467 -0.449,4.345 -0.449,4.345l34.412,16.725l-36.402,-9.14c0,0 -0.46,10.628 3.983,15.429c2.546,2.694 11.635,7.06 15.34,7.207c2.301,0.092 4.487,-0.93 6.635,-1.776c5.768,-2.276 11.92,-3.411 18.117,-3.343c0.422,0.005 0.766,0.355 0.766,0.778c0,0.051 -0.005,0.102 -0.015,0.153c-0.256,1.261 1.02,2.902 2.485,3.209c1.831,0.391 3.857,-0.215 5.652,0.416c3.662,1.31 3.595,6.252 2.228,10.097c-0.035,0.09 -0.053,0.186 -0.053,0.283c0,0.43 0.353,0.784 0.782,0.784c0.048,-0 0.096,-0.005 0.144,-0.014c0.045,-0.008 0.091,-0.011 0.137,-0.011c0.435,-0 0.793,0.359 0.793,0.796c0,0.096 -0.017,0.191 -0.051,0.281l-0.678,1.739c-0.037,0.091 -0.056,0.189 -0.056,0.288c0,0.347 0.235,0.652 0.569,0.741c4.981,1.322 6.825,8.254 5.585,13.501c-1.281,5.554 -4.566,10.649 -4.657,16.35c-0,3.122 0.928,6.153 1.886,9.111c2.344,7.348 4.686,14.714 7.026,22.099c0.094,0.311 0.372,0.532 0.696,0.551c6.373,0.306 10.182,-7.856 16.237,-10.459c2.332,-1.016 5.078,-1.224 6.904,-2.969c1.232,-1.347 1.384,-3.383 0.366,-4.899c-0.108,-0.136 -0.166,-0.305 -0.166,-0.479c-0,-0.302 0.178,-0.578 0.453,-0.703c2.346,-1.003 3.928,-3.263 4.071,-5.817c0.037,-0.869 -0.091,-1.739 0,-2.602c0.208,-1.225 0.983,-2.309 1.728,-3.362c4.804,-6.815 5.499,-17.041 8.552,-24.756c0.799,-2.076 4.01,-1.715 4.81,-3.791c3.052,-7.709 6.067,-15.387 9.107,-23.097l2.564,-6.392c0.038,-0.094 0.057,-0.195 0.057,-0.296c0,-0.43 -0.352,-0.784 -0.781,-0.784c-0.088,0 -0.176,0.015 -0.259,0.045c-1.99,0.722 -4.633,0.116 -6.367,-1.317c-2.478,-2.033 -3.772,-5.131 -5.713,-7.678c-1.648,-2.192 -3.864,-4.134 -4.639,-6.803c-0.452,-1.531 -0.367,-3.178 -0.611,-4.776c-0.61,-3.448 -2.875,-6.32 -4.425,-9.443c-1.337,-2.675 -2.124,-6.025 -0.946,-8.652c0.127,-0.292 0.415,-0.481 0.733,-0.481c0.283,-0 0.545,0.151 0.689,0.396c5.746,10.144 11.016,20.553 15.81,31.228c0.124,0.281 0.402,0.462 0.708,0.462c0.276,0 0.533,-0.148 0.671,-0.388c0.693,-1.16 1.69,-2.107 2.881,-2.737c1.221,-0.662 2.601,-0.931 3.889,-1.47c3.495,-1.52 5.769,-4.993 5.769,-8.815c-0,-3.849 -2.305,-7.341 -5.837,-8.845c-1.703,-0.722 -3.662,-0.955 -5.261,-1.947c-1.6,-0.992 -2.778,-3.147 -1.758,-4.739c0.946,-1.5 3.253,-1.47 4.834,-0.612c1.581,0.857 2.759,2.339 4.273,3.324c1.074,0.723 2.332,1.225 3.498,1.837c6.311,3.625 10.362,11.767 11.687,18.962c0.714,3.87 1.526,7.709 2.484,11.487c0.037,-0.815 0,-1.653 0,-2.449c0.008,-33.361 -17.949,-64.925 -39.863,-87.902Zm14.002,45.243c-0.885,-0.151 -1.708,-0.558 -2.368,-1.169c-1.135,-0.894 -2.277,-1.947 -2.607,-3.362c-0.384,-1.672 0.416,-3.6 -0.476,-5.094c-0.491,-0.663 -1.1,-1.229 -1.794,-1.672c-1.657,-1.326 -2.819,-3.176 -3.296,-5.248c-0.391,-1.8 0.177,-4.2 2.002,-4.5c0.901,-0.131 1.791,0.328 2.209,1.139l-1.22,0.667c2.063,0.239 3.052,3.356 1.44,4.703c-0.207,0.208 -0.476,0.392 -0.476,0.685c0.014,0.193 0.112,0.371 0.269,0.484c1.281,1.409 3.204,1.917 4.883,2.817c1.679,0.9 3.314,2.486 3.052,4.347c-0.537,0.209 -1.044,0.386 -1.581,0.613c-0.574,0.575 -0.116,1.592 0.476,2.161c0.592,0.57 1.374,1.133 1.41,1.972c0.037,0.839 -1.031,1.519 -1.923,1.457Z" style="fill:#fff;fill-rule:nonzero;"/></g><path d="M183.192,107.266c18.265,-8.731 38.727,-13.623 60.326,-13.623c77.196,-0 139.869,62.493 139.869,139.467c-0,76.975 -62.673,139.468 -139.869,139.468c-77.195,0 -139.868,-62.493 -139.868,-139.468c-0,-50.094 24.69,-91.7 56.585,-107.905c2.844,2.48 5.843,1.153 8.596,4.04c2.48,2.6 20.782,30.579 20.782,30.579l8.033,-1.562l4.847,25.104l10.09,-1.936l3.835,31.131l53.333,14.091l-43.964,-21.724l-5.336,-35.321l-13.42,-0.548l-0.439,-22.028l-16.226,-2.733l-7.174,-37.032Z" style="fill:none;stroke:#fff;stroke-width:16.67px;"/><path d="M183.192,107.266c18.265,-8.731 38.727,-13.623 60.326,-13.623c77.196,-0 139.869,62.493 139.869,139.467c-0,76.975 -62.673,139.468 -139.869,139.468c-77.195,0 -139.868,-62.493 -139.868,-139.468c-0,-50.094 24.69,-91.7 56.585,-107.905c2.844,2.48 5.843,1.153 8.596,4.04c2.48,2.6 20.782,30.579 20.782,30.579l8.033,-1.562l4.847,25.104l10.09,-1.936l3.835,31.131l53.333,14.091l-43.429,-21.144l-5.871,-35.901l-13.42,-0.548l-0.439,-22.028l-16.226,-2.733l-7.174,-37.032Z" style="fill:none;stroke:#fff;stroke-width:8.33px;"/><g><path d="M242.229,93.643c57.763,-0 115.388,61.019 115.388,136.178c-0,75.16 -57.625,136.179 -115.388,136.179c-57.762,0 -104.658,-61.019 -104.658,-136.179c0,-75.159 46.896,-136.178 104.658,-136.178Z" style="fill:none;stroke:#fff;stroke-width:6px;stroke-linejoin:round;"/><path d="M243.919,93.643c34.598,-0 68.275,64.306 68.275,139.465c-0,75.16 -43.732,147.518 -112.088,141.05" style="fill:none;stroke:#fff;stroke-width:6px;stroke-linejoin:round;"/><path d="M270.21,372.578c-46.73,0.69 -80.162,-67.597 -80.162,-142.757c0,-75.159 19.272,-136.178 53.871,-136.178" style="fill:none;stroke:#fff;stroke-width:6px;stroke-linejoin:round;"/><path d="M243.518,93.643c7.618,-0 13.803,61.019 13.803,136.178c0,69.262 -7.6,126.185 -12.007,136.179c-3.368,7.639 -6.274,13.592 -6.872,13.592" style="fill:none;stroke:#fff;stroke-width:6px;stroke-linejoin:round;"/><path d="M101.359,233.529c-0.007,-8.302 63.687,-15.094 142.147,-15.158c78.46,-0.064 142.165,6.625 142.171,14.927" style="fill:none;stroke:#fff;stroke-width:6px;stroke-linejoin:round;"/><path d="M110.584,281.42c-0.007,-8.302 59.487,-15.091 132.774,-15.15c73.287,-0.06 132.792,6.632 132.799,14.934" style="fill:none;stroke:#fff;stroke-width:6px;stroke-linejoin:round;"/><path d="M110.732,179.188c-0.007,-8.302 59.487,-15.09 132.774,-15.15c73.287,-0.059 132.792,6.632 132.799,14.935" style="fill:none;stroke:#fff;stroke-width:6px;stroke-linejoin:round;"/><path d="M133.874,320.828c-0.007,-8.302 49.103,-15.082 109.599,-15.131c60.496,-0.05 109.617,6.651 109.624,14.953" style="fill:none;stroke:#fff;stroke-width:6px;stroke-linejoin:round;"/><path d="M133.907,135.646c-0.007,-8.302 49.103,-15.082 109.599,-15.131c60.496,-0.049 109.617,6.651 109.624,14.953" style="fill:none;stroke:#fff;stroke-width:6px;stroke-linejoin:round;"/><path d="M177.819,355.632c-0.006,-8.303 29.948,-15.067 66.851,-15.097c36.902,-0.03 66.867,6.686 66.874,14.988" style="fill:none;stroke:#fff;stroke-width:6px;stroke-linejoin:round;"/><path d="M176.656,110.536c-0.007,-8.302 29.948,-15.066 66.85,-15.096c36.902,-0.03 66.868,6.686 66.875,14.988" style="fill:none;stroke:#fff;stroke-width:6px;stroke-linejoin:round;"/></g><g><g><path d="M227.365,314.647c0,-0 -3.567,17.131 5.116,24.987c8.682,7.857 23.438,32.944 23.438,32.944c29.321,9.649 54.419,-1.802 78.486,-18.399c-0,-0 3.17,-26.475 8.248,-32.861c5.078,-6.385 -14.302,-30.533 -14.302,-30.533c-0,-0 -43.827,2.732 -53.726,5.18c-9.898,2.449 -47.26,18.682 -47.26,18.682Z"/><path d="M227.365,314.647c0,-0 -3.567,17.131 5.116,24.987c8.682,7.857 23.438,32.944 23.438,32.944c29.321,9.649 54.419,-1.802 78.486,-18.399c-0,-0 3.17,-26.475 8.248,-32.861c5.078,-6.385 -14.302,-30.533 -14.302,-30.533c-0,-0 -43.827,2.732 -53.726,5.18c-9.898,2.449 -47.26,18.682 -47.26,18.682Zm110.099,3.613c-1.701,2.478 -3.345,6.636 -4.627,11.419c-2.006,7.482 -3.408,16.591 -4.029,21.055c-21.234,14.323 -43.318,24.327 -68.928,16.795c-3.824,-6.277 -15.828,-25.516 -23.374,-32.344c-2.396,-2.168 -3.235,-5.451 -3.625,-8.501c-0.38,-2.97 -0.256,-5.83 -0.056,-7.862l-0,-0c9.008,-3.881 35.249,-15.056 43.241,-17.032c8.098,-2.004 39.371,-4.158 49.484,-4.815c2.275,3.023 6.151,8.426 8.979,13.68c1.018,1.893 1.9,3.758 2.464,5.461c0.228,0.691 0.399,1.685 0.471,2.144Z"/><path d="M391.688,233.11c-9.585,27.357 -24.792,45.121 -55.815,62.436c-3.004,1.677 -5.415,0.992 -8.574,2.596l-15.404,36.083c-0,-0 -76.431,17.87 -95.895,24.268c-10.42,3.425 -15.761,8.849 -15.38,9.151" style="fill:none;stroke:#000;stroke-width:6px;"/><path d="M106.799,260.961c17.697,17.255 54.127,47.101 90.432,56.945c19.768,5.36 19.902,1.885 34.805,-0.337l81.913,19.688l45.506,-9.315" style="fill:none;stroke:#000;stroke-width:6px;"/></g><path d="M222.308,312.06c-0,-0 -3.567,17.131 5.115,24.987c8.682,7.856 18.277,17.64 18.277,17.64c-0,0 22.735,-1.649 35.544,-4.272c12.809,-2.622 36.176,-9.79 36.176,-9.79c-0,0 5.243,-24.318 10.32,-30.703c5.078,-6.386 -4.447,-21.724 -4.447,-21.724c0,-0 -43.827,2.732 -53.725,5.18c-9.899,2.449 -47.26,18.682 -47.26,18.682Z" style="fill:#04b2ff;"/><path d="M222.308,312.06c-0,-0 -3.567,17.131 5.115,24.987c8.682,7.856 18.277,17.64 18.277,17.64c-0,0 22.735,-1.649 35.544,-4.272c12.809,-2.622 36.176,-9.79 36.176,-9.79c-0,0 5.243,-24.318 10.32,-30.703c5.078,-6.386 -4.447,-21.724 -4.447,-21.724c0,-0 -43.827,2.732 -53.725,5.18c-9.899,2.449 -47.26,18.682 -47.26,18.682Zm5.459,4.175c9.009,-3.881 35.25,-15.056 43.242,-17.032c7.942,-1.965 38.179,-4.076 48.878,-4.776c0.917,1.816 2.004,4.243 2.71,6.729c0.316,1.113 0.558,2.237 0.62,3.306c0.038,0.645 0.18,1.282 -0.173,1.725c-1.813,2.281 -3.758,6.428 -5.433,11.193c-2.277,6.479 -4.225,14.157 -5.26,18.509c-6.824,2.043 -22.629,6.666 -32.31,8.648c-9.852,2.017 -25.706,3.437 -32.036,3.952c-3.293,-3.302 -10.168,-10.11 -16.556,-15.891c-2.397,-2.168 -3.236,-5.451 -3.626,-8.502c-0.379,-2.969 -0.256,-5.829 -0.056,-7.861l0,-0Z" style="fill:#04b2ff;"/><path d="M393.252,223.873c-9.585,27.357 -30.741,49.446 -61.764,66.761c-3.004,1.677 -6.088,3.317 -9.247,4.921l-15.404,36.083c0,-0 -76.233,13.07 -95.479,19.893c-8.717,3.091 -19.995,21.047 -19.995,21.047" style="fill:none;stroke:#04b2ff;stroke-width:12px;"/><path d="M94.893,245.343c30.018,29.266 95.774,75.054 132.086,69.639l81.913,19.688l45.505,-9.315" style="fill:none;stroke:#04b2ff;stroke-width:12px;"/><g><path d="M229.035,322.393c15.643,-5.972 38.904,-13.381 55.087,-16.287c11.23,-2.016 26.909,-3.724 38.389,-4.32" style="fill:none;stroke:#006995;stroke-opacity:0.55;stroke-width:2px;"/><path d="M228.857,321.524c26.499,-10.117 65.453,-19.152 93.476,-20.607" style="fill:none;stroke:#93deff;stroke-opacity:0.55;stroke-width:2px;"/><path d="M230.706,330.558c27.081,-7.276 63.533,-15.497 90.976,-19.782" style="fill:none;stroke:#006995;stroke-opacity:0.55;stroke-width:2px;"/><path d="M237.33,338.837c28.253,-5.152 55.45,-11.034 81.813,-17.188" style="fill:none;stroke:#006995;stroke-opacity:0.55;stroke-width:2px;"/><path d="M243.433,346.369c25.201,-0.634 48.886,-5.399 70.935,-14.804" style="fill:none;stroke:#006995;stroke-opacity:0.55;stroke-width:2px;"/><path d="M230.528,329.689c27.217,-6.612 63.645,-14.95 90.976,-19.782" style="fill:none;stroke:#93deff;stroke-opacity:0.55;stroke-width:2px;"/><path d="M237.153,337.968c25.014,-4.573 48.076,-9.058 81.812,-17.189" style="fill:none;stroke:#93deff;stroke-opacity:0.55;stroke-width:2px;"/><path d="M227.528,317.612c0,-0 28.031,-13.842 43.359,-17.79c14.46,-3.724 48.609,-5.9 48.609,-5.9c0,0 5.217,6.932 4.633,12.051c-0.834,7.309 -9.636,31.808 -9.636,31.808l-67.032,13.75c-0,0 -14.215,-13.603 -17.537,-19.256c-2.509,-4.27 -2.396,-14.663 -2.396,-14.663Zm2.011,1.243c5.347,-2.598 28.473,-13.651 41.847,-17.096c12.799,-3.297 41.145,-5.359 47.119,-5.766c0.623,0.931 1.612,2.523 2.417,4.338c0.772,1.74 1.416,3.693 1.22,5.415c-0.719,6.305 -7.473,25.572 -9.154,30.302c-0,-0 -64.899,13.313 -64.899,13.313c-2.946,-2.849 -13.645,-13.341 -16.441,-18.099c-0.894,-1.521 -1.366,-3.927 -1.668,-6.251c-0.316,-2.426 -0.412,-4.783 -0.441,-6.156l0,-0Z" style="fill:#006995;fill-opacity:0.55;"/><path d="M227.35,316.742c0,0 28.031,-13.841 43.359,-17.789c14.46,-3.725 48.609,-5.9 48.609,-5.9c0,0 5.217,6.932 4.633,12.051c-0.834,7.309 -9.636,31.808 -9.636,31.808l-67.032,13.75c-0,0 -14.215,-13.603 -17.537,-19.256c-2.509,-4.27 -2.396,-14.664 -2.396,-14.664Zm2.011,1.243c5.347,-2.597 28.473,-13.65 41.847,-17.095c12.799,-3.297 41.145,-5.36 47.119,-5.767c0.623,0.932 1.612,2.524 2.417,4.339c0.772,1.739 1.416,3.693 1.22,5.415c-0.719,6.305 -7.473,25.572 -9.154,30.301c-0,0.001 -64.899,13.314 -64.899,13.314c-2.945,-2.849 -13.645,-13.341 -16.441,-18.099c-0.894,-1.521 -1.366,-3.927 -1.668,-6.251c-0.316,-2.426 -0.412,-4.783 -0.441,-6.156l0,-0.001Z" style="fill:#93deff;fill-opacity:0.55;"/><path d="M243.318,345.81c25.226,-0.613 48.883,-5.475 70.935,-14.804" style="fill:none;stroke:#93deff;stroke-opacity:0.55;stroke-width:2px;"/></g></g><path d="M243.518,77.877c87.612,-0 158.741,71.129 158.741,158.741c-0,87.611 -71.129,158.74 -158.741,158.74c-87.611,0 -158.74,-71.129 -158.74,-158.74c-0,-87.612 71.129,-158.741 158.74,-158.741Zm-60.326,29.389c18.265,-8.731 38.727,-13.623 60.326,-13.623c77.196,-0 139.869,62.493 139.869,139.467c-0,76.975 -62.673,139.468 -139.869,139.468c-77.195,0 -139.868,-62.493 -139.868,-139.468c-0,-50.094 24.69,-91.7 56.585,-107.905c2.844,2.48 5.843,1.153 8.596,4.04c2.48,2.6 20.782,30.579 20.782,30.579l8.033,-1.562l4.847,25.104l10.09,-1.936l3.835,31.131l53.333,14.091l-43.429,-21.144l-5.871,-35.901l-13.42,-0.548l-0.439,-22.028l-16.226,-2.733l-7.174,-37.032Z"/><g><path d="M154.84,210.832l52.999,63.014" style="fill:none;stroke:#04b2ff;stroke-width:24px;"/><path d="M160.886,273.846l29.73,-81.616" style="fill:none;stroke:#04b2ff;stroke-width:24px;"/><path d="M264.654,236.618l32.537,-87.384" style="fill:none;stroke:#04b2ff;stroke-width:24px;"/><path d="M264.654,149.234l32.537,68.875" style="fill:none;stroke:#04b2ff;stroke-width:24px;"/><path d="M154.84,210.832l52.999,63.014" style="fill:none;stroke:#000;stroke-width:12px;"/><path d="M160.886,273.846l29.73,-81.616" style="fill:none;stroke:#000;stroke-width:12px;"/><path d="M264.654,236.618l32.537,-87.384" style="fill:none;stroke:#000;stroke-width:12px;"/><path d="M264.654,149.234l32.537,68.875" style="fill:none;stroke:#000;stroke-width:12px;"/></g><g><path d="M58.144,241.141c0.028,-0.028 70.578,-69.287 107.377,-98.804c37.158,-29.806 115.571,-80.028 115.571,-80.028l0.719,12.989l11.79,2.114l-1.738,12.728l13.215,3.835l-4.141,12.522l12.371,0.591l-2.131,17.635l12.143,-2.519l-3.89,17.12l14.465,2.425c0,-0 -79.886,47.46 -116.541,76.832c-36.952,29.611 -105.174,100.831 -105.174,100.831l-2.29,-15.642l-11.717,-1.706l1.436,-12.911l-13.166,-3.39l3.82,-12.793l-12.257,-0.145l1.715,-17.881l-11.963,2.986l3.468,-17.425l-13.082,0.636l-0,-0Zm-0,-0c0.016,-0.015 31.888,-30.643 64.105,-59.647c15.943,-14.353 31.967,-28.305 44.247,-37.942c12.197,-9.571 28.795,-21.259 45.627,-32.67c27.438,-18.6 55.492,-36.452 66.147,-43.182c0,0 0.348,7.775 0.348,7.775c0.081,1.48 1.169,2.71 2.628,2.971l8.603,1.636c0,0 -1.41,9.59 -1.41,9.59c-0.232,1.698 0.815,3.31 2.461,3.787l9.566,2.883c0,-0 -3.074,8.983 -3.074,8.983c-0.366,1.108 -0.193,2.324 0.468,3.286c0.66,0.962 1.733,1.56 2.899,1.615l8.181,0.475c0,0 -1.777,13.537 -1.777,13.537c-0.156,1.293 0.32,2.582 1.279,3.462c0.958,0.881 2.282,1.247 3.557,0.982l5.762,-1.133c-0,-0 -2.574,10.811 -2.574,10.811c-0.265,1.168 -0.038,2.393 0.629,3.388c0.667,0.994 1.714,1.67 2.895,1.868l2.407,0.429c-13.358,7.926 -37.561,22.492 -61.162,37.756c-17.2,11.124 -34.071,22.627 -46.265,32.209c-12.365,9.85 -28.237,24.246 -43.854,39.193c-19.139,18.319 -38.099,37.263 -49.692,49.533c-1.72,1.82 -3.277,3.494 -4.653,4.992c-0.001,0 -0.837,-4.656 -0.837,-4.656c-0.309,-2.107 -1.965,-3.761 -4.072,-4.068l-7.745,-0.832c0,0 0.631,-8.59 0.631,-8.59c0.214,-1.922 -1.019,-3.708 -2.891,-4.19l-9.996,-2.177c-0,-0 2.43,-9.424 2.43,-9.424c0.258,-0.862 0.096,-1.796 -0.438,-2.521c-0.533,-0.725 -1.376,-1.158 -2.277,-1.168l-9.76,0.265c-0,0 0.864,-15.262 0.864,-15.262c0.052,-0.545 -0.163,-1.082 -0.579,-1.44c-0.415,-0.357 -0.978,-0.491 -1.51,-0.358l-10.065,2.934c-0,-0 2.481,-15.636 2.481,-15.636c0.031,-0.154 -0.011,-0.315 -0.114,-0.434c-0.103,-0.119 -0.255,-0.185 -0.412,-0.177l-13.058,1.147Z" style="fill:#0c1826;fill-opacity:0.76;"/><path d="M58.182,241.217c0,-0 71.822,-66.827 109.036,-95.552c37.569,-28.999 116.379,-78.442 116.379,-78.442l0.224,12.017l11.491,1.528l-2.178,11.865l12.826,3.07l-4.529,11.763l12.117,0.094l-2.745,16.429l12.009,-2.781l-4.452,16.016l14.104,1.718c0,-0 -80.153,46.936 -117.212,75.515c-37.361,28.811 -106.95,97.35 -106.95,97.35l-1.666,-14.42l-11.435,-1.151l1.889,-12.024l-12.794,-2.66l4.224,-12.002l-12.023,0.315l2.346,-16.642l-11.849,3.208l4.05,-16.284l-12.862,1.07Z" style="fill:#d3e5ff;fill-opacity:0.28;"/><path d="M58.182,241.217c0.029,-0.027 71.83,-66.833 109.036,-95.552c37.569,-28.999 116.379,-78.442 116.379,-78.442l0.224,12.017l11.491,1.528l-2.178,11.865l12.826,3.07l-4.529,11.763l12.117,0.094l-2.745,16.429l12.009,-2.781l-4.452,16.016l14.104,1.718c0,-0 -80.153,46.936 -117.212,75.515c-37.361,28.811 -106.95,97.35 -106.95,97.35l-1.666,-14.42l-11.435,-1.151l1.889,-12.024l-12.794,-2.66l4.224,-12.002l-12.023,0.315l2.346,-16.642l-11.849,3.208l4.05,-16.284l-12.862,1.07l0,-0Zm0,-0c0.016,-0.015 32.283,-29.779 64.819,-58.032c16.091,-13.974 32.248,-27.577 44.599,-37.026c12.293,-9.402 28.983,-20.96 45.894,-32.265c30.179,-20.176 61.055,-39.545 68.88,-44.431c0,0 0.138,9.801 0.138,9.801c0.012,0.647 0.495,1.188 1.136,1.273l10.062,1.384c-0,0 -1.969,10.456 -1.969,10.456c-0.136,0.74 0.331,1.457 1.063,1.632l11.169,2.727c-0,0 -3.973,10.18 -3.973,10.18c-0.18,0.469 -0.119,0.997 0.164,1.413c0.283,0.415 0.752,0.666 1.255,0.67l10.249,0.125c0,0 -2.51,14.591 -2.51,14.591c-0.092,0.549 0.097,1.108 0.503,1.49c0.406,0.381 0.976,0.535 1.519,0.409l9.174,-2.076c-0,-0 -3.742,13.201 -3.742,13.201c-0.141,0.509 -0.054,1.054 0.24,1.493c0.294,0.44 0.764,0.729 1.289,0.793l8.575,1.088c-11.013,6.453 -39.282,23.174 -66.795,40.732c-17.162,10.953 -34.029,22.231 -46.253,31.558c-9.609,7.321 -21.33,17.229 -33.478,27.912c-21.903,19.261 -44.901,41.365 -59.742,54.907c-3.158,2.882 -5.947,5.374 -8.246,7.402c0.001,-0 -0.314,-5.844 -0.314,-5.844c-0.285,-2.468 -2.251,-4.404 -4.723,-4.653l-5.427,-0.88c0,-0 0.657,-6.202 0.657,-6.202c0.445,-2.829 -1.408,-5.508 -4.212,-6.091l-7.901,-1.211c-0,0 2.014,-6.864 2.014,-6.864c0.437,-1.242 0.235,-2.62 -0.54,-3.685c-0.775,-1.064 -2.024,-1.68 -3.341,-1.645l-8.238,0.653c-0,0 1.065,-12.64 1.065,-12.64c0.113,-0.806 -0.185,-1.615 -0.796,-2.154c-0.61,-0.539 -1.45,-0.735 -2.235,-0.522l-8.998,3.001c0,-0 2.554,-13.56 2.554,-13.56c0.058,-0.233 -0,-0.48 -0.156,-0.662c-0.155,-0.183 -0.389,-0.28 -0.629,-0.26l-12.8,1.812Z" style="fill:#a2a8af;"/><path d="M63.284,235.252c0.027,-0.025 69.337,-63.613 105.193,-91.012c36.205,-27.666 112.038,-74.986 112.038,-74.986l0.091,11.306l10.969,1.322l-2.203,11.187l12.228,2.76l-4.448,11.115l11.581,-0.034l-2.791,15.488l11.507,-2.738l-4.418,15.117l13.464,1.474c-0,-0 -77.092,44.974 -112.805,72.24c-36.004,27.487 -103.218,92.683 -103.218,92.683l-1.446,-13.552l-10.918,-0.969l1.928,-11.334l-12.202,-2.374l4.159,-11.336l-11.495,0.417l2.413,-15.683l-11.36,3.137l4.037,-15.364l-12.304,1.136l-0,-0Zm-0,-0c0.017,-0.014 25.814,-20.831 54.376,-43.491c9.075,-7.199 18.4,-14.555 27.231,-21.55c4.704,-3.726 9.242,-7.362 13.534,-10.783c4.878,-3.887 9.399,-7.535 13.511,-10.662c11.675,-9.061 27.559,-20.188 43.592,-31.172c24.567,-16.832 49.55,-33.223 60.912,-40.629c-0,0 0.081,3.628 0.081,3.628c0.017,2.055 1.557,3.777 3.597,4.023l6.833,0.725c0,-0 -1.278,6.999 -1.278,6.999c-0.395,2.004 0.877,3.957 2.869,4.407l8.185,1.73c-0,-0 -2.765,7.19 -2.765,7.19c-0.424,1.06 -0.294,2.262 0.348,3.207c0.641,0.944 1.71,1.508 2.852,1.505l7.695,-0.128c-0,0 -1.928,11.604 -1.928,11.604c-0.183,1.017 0.159,2.057 0.909,2.767c0.75,0.71 1.808,0.994 2.813,0.755l6.67,-1.685c0,0 -2.867,10.331 -2.867,10.331c-0.223,0.762 -0.097,1.584 0.344,2.244c0.441,0.66 1.151,1.092 1.94,1.178l6.015,0.579c-11.578,7.062 -36.947,22.633 -61.879,38.575c-16.478,10.537 -32.857,21.093 -44.681,29.932c-12.155,8.844 -27.804,21.747 -43.352,35.045c-21.263,18.185 -42.285,37.115 -53.681,47.476c0,0.001 -0.191,-2.065 -0.191,-2.065c-0.303,-2.838 -2.571,-5.066 -5.415,-5.318l-4.651,-0.419c-0,0 0.692,-4.985 0.692,-4.985c0.513,-3.019 -1.476,-5.895 -4.482,-6.48l-6.773,-0.985c0,-0 1.716,-5.7 1.716,-5.7c0.497,-1.354 0.287,-2.866 -0.56,-4.033c-0.847,-1.166 -2.219,-1.835 -3.66,-1.783l-7.319,0.702c0,-0 1.019,-11.24 1.019,-11.24c0.137,-0.89 -0.186,-1.79 -0.86,-2.389c-0.673,-0.599 -1.604,-0.815 -2.473,-0.575l-8.199,2.861c0,-0 2.378,-12.318 2.378,-12.318c0.068,-0.259 0.005,-0.535 -0.168,-0.739c-0.173,-0.204 -0.434,-0.311 -0.701,-0.287l-12.229,1.953Z" style="fill-opacity:0.83;"/><path d="M221.893,120.111c-0,0 48.173,-33.155 53.253,-25.387c23.519,35.963 -23.27,59.324 -29.323,60.965c-6.907,1.872 -26.122,7.646 -42.041,10.805c-45.039,8.938 -118.721,64.446 -118.721,64.446c37.436,-37.172 79.142,-74.224 136.832,-110.829Z" style="fill:#c0d1dc;fill-opacity:0.22;"/><path d="M255.587,101.249c4.782,-0.923 9.507,4.522 10.39,9.096c0.882,4.574 -2.283,9.037 -7.065,9.96c-4.782,0.923 -10.274,-0.118 -11.157,-4.691c-0.883,-4.574 3.051,-13.442 7.832,-14.365Z" style="fill:#fff;"/><path d="M156.152,172.684l78.416,-42.893l1.805,-14.984l-80.221,57.877Z" style="fill:#fff;"/><path id="V" d="M299.701,125.722l10.953,-2.701l-4.403,14.092l12.751,1.182c0,0 -73.756,42.811 -108.015,68.612c-11.539,8.691 -26.441,21.336 -41.173,34.327l-0.044,0.037l-0.035,0.033c-29.33,25.861 -57.955,53.057 -57.955,53.057l-1.182,-12.559l-10.343,-0.747l1.988,-10.547l-11.541,-2.034l4.104,-10.58l-10.91,0.547l2.508,-14.591l-10.819,3.07l4.045,-14.316l-11.688,1.224l-0,0l11.605,-2.008c0.26,-0.028 0.517,0.076 0.686,0.276c0.168,0.2 0.226,0.47 0.155,0.722c0,0 -2.399,11.349 -2.399,11.349l7.721,-2.761c0.84,-0.238 1.743,-0.029 2.392,0.555c0.65,0.584 0.954,1.46 0.806,2.32c-0,-0 -1.077,10.197 -1.077,10.197l6.766,-0.76c1.415,-0.071 2.77,0.579 3.599,1.728c0.83,1.149 1.021,2.64 0.509,3.961c-0,-0 -1.577,4.954 -1.577,4.954l6.065,0.759c1.44,0.254 2.719,1.074 3.55,2.276c0.832,1.203 1.148,2.689 0.877,4.126c-0,-0 -0.615,4.304 -0.615,4.304l3.993,0.444c2.703,0.195 4.869,2.315 5.123,5.013c-0,-0 0.126,3.276 0.126,3.276c7.906,-6.369 21.024,-16.939 35.621,-28.705c5.847,-4.713 11.925,-9.581 17.902,-14.583l0.552,-0.515c14.249,-13.177 29.171,-25.377 40.548,-34.004c11.224,-8.447 26.679,-18.727 42.405,-28.711c30.978,-19.669 62.982,-38.227 65.533,-39.704c0.001,0 -12.561,-1.183 -12.561,-1.183c-0.012,-0.002 -0.023,-0.008 -0.03,-0.018c-0.006,-0.01 -0.008,-0.023 -0.005,-0.035l4.416,-14.055c-0,0 -10.927,2.677 -10.927,2.677l-0.001,-0.001l2.865,-14.414l-2.864,14.414Zm-231.759,108.106c0.026,-0.024 66.662,-60.002 101.058,-85.93c34.73,-26.18 107.325,-71.15 107.325,-71.15l-0.071,10.493l10.386,1.075l-2.247,10.413l11.561,2.393l-4.375,10.378l10.986,-0.192l-10.981,0.516c-0.11,0.002 -0.213,-0.051 -0.274,-0.142c-0.062,-0.091 -0.073,-0.207 -0.031,-0.308c0,-0 3.635,-9.654 3.635,-9.654l-10.764,-1.815c-0.314,-0.065 -0.588,-0.252 -0.763,-0.52c-0.175,-0.269 -0.235,-0.596 -0.167,-0.909c-0,0 1.57,-8.731 1.57,-8.731l-8.725,-0.678c-0.941,-0.098 -1.653,-0.894 -1.647,-1.839c0,0 -0.051,-6.943 -0.051,-6.943c-8.835,5.457 -35.783,22.19 -62.217,39.497c-15.608,10.219 -31.048,20.619 -42.433,29.068c-11.444,8.467 -26.445,20.624 -41.4,33.105c-30.279,25.27 -60.36,51.86 -60.375,51.873l-0,0Z" style="fill:#fff;"/></g><path d="M268.372,231.793l45.652,11.005l-41.954,-20.93" style="fill:#fff;"/></g></svg>